<svg id="visual" viewBox="0 0 900 600" width="900" height="600" xmlns="http://www.w3.org/2000/svg" xmlns:xlink="http://www.w3.org/1999/xlink" version="1.1"><rect x="0" y="0" width="900" height="600" fill="#001220"></rect><defs><linearGradient id="grad1_0" x1="33.3%" y1="0%" x2="100%" y2="100%"><stop offset="20%" stop-color="#001220" stop-opacity="1"></stop><stop offset="80%" stop-color="#001220" stop-opacity="1"></stop></linearGradient></defs><defs><linearGradient id="grad2_0" x1="0%" y1="0%" x2="66.7%" y2="100%"><stop offset="20%" stop-color="#001220" stop-opacity="1"></stop><stop offset="80%" stop-color="#001220" stop-opacity="1"></stop></linearGradient></defs><g transform="translate(900, 0)"><path d="M0 486.7C-70.6 483.2 -141.3 479.6 -182.2 439.8C-223 399.9 -234.1 323.8 -280.7 280.7C-327.3 237.6 -409.4 227.6 -449.7 186.3C-490 145 -488.4 72.5 -486.7 0L0 0Z" fill="#FBAE3C"></path></g><g transform="translate(0, 600)"><path d="M0 -486.7C59.7 -464.9 119.3 -443.1 172.6 -416.7C225.9 -390.2 272.7 -359.1 321.7 -321.7C370.7 -284.4 421.8 -240.9 449.7 -186.3C477.6 -131.6 482.2 -65.8 486.7 0L0 0Z" fill="#FBAE3C"></path></g></svg>